<svg width="25" height="25" viewBox="0 0 25 25" version="1.1" xmlns="http://www.w3.org/2000/svg" xmlns:xlink="http://www.w3.org/1999/xlink">
<title>phone</title>
<desc>Created using Figma</desc>
<g id="Canvas" transform="translate(-1137 -1557)">
<g id="phone">
<g id="Page 1">
<g id="feather icon">
<g id="phone">
<g id="Shape">
<use xlink:href="#path0_stroke" transform="translate(1138 1558)" fill="#FFFFFF"/>
</g>
</g>
</g>
</g>
</g>
</g>
<defs>
<path id="path0_stroke" d="M 22.9993 17.2199L 21.9996 17.1951C 21.9994 17.2033 21.9993 17.2116 21.9993 17.2199L 22.9993 17.2199ZM 22.9993 20.6823L 21.9993 20.6823L 21.9993 20.6864L 22.9993 20.6823ZM 20.4783 22.9906L 20.3704 23.9848C 20.3764 23.9854 20.3824 23.986 20.3884 23.9866L 20.4783 22.9906ZM 10.4982 19.4474L 11.0416 18.6079L 11.0338 18.6029L 10.4982 19.4474ZM 3.55964 12.5226L 4.40321 11.9855L 4.39843 11.9781L 3.55964 12.5226ZM 0.00939462 2.51614L -0.986531 2.60632C -0.986059 2.61153 -0.985546 2.61674 -0.984992 2.62195L 0.00939462 2.51614ZM 0.604687 0.752177L 1.34258 1.42709L 0.604687 0.752177ZM 2.3107 0.000113474L 2.3107 -0.999887L 2.30976 -0.999886L 2.3107 0.000113474ZM 5.77999 0.000113474L 5.77999 1.00016L 5.78982 1.00007L 5.77999 0.000113474ZM 8.09286 1.98524L 9.08428 1.85422L 9.08298 1.84501L 8.09286 1.98524ZM 8.90236 5.22838L 7.96569 5.57859L 7.96654 5.58085L 8.90236 5.22838ZM 8.38197 7.66362L 9.08838 8.37143L 9.09232 8.36746L 8.38197 7.66362ZM 6.9133 9.12938L 6.20689 8.42157C 5.88778 8.74005 5.82124 9.23268 6.04443 9.62441L 6.9133 9.12938ZM 13.8519 16.0542L 13.3583 16.9239C 13.7493 17.1458 14.2402 17.0795 14.5583 16.762L 13.8519 16.0542ZM 15.3206 14.5885L 14.6181 13.8767L 14.6142 13.8807L 15.3206 14.5885ZM 17.7606 14.0691L 17.4094 15.0054L 17.4116 15.0062L 17.7606 14.0691ZM 21.0102 14.877L 21.1496 13.8867L 21.1407 13.8856L 21.0102 14.877ZM 21.9993 17.2199L 21.9993 20.6823L 23.9993 20.6823L 23.9993 17.2199L 21.9993 17.2199ZM 21.9993 20.6864C 22.0008 21.0541 21.8469 21.4058 21.5747 21.6551L 22.9253 23.1302C 23.6129 22.5006 24.0031 21.6105 23.9993 20.6783L 21.9993 20.6864ZM 21.5747 21.6551C 21.3024 21.9044 20.9369 22.0279 20.5681 21.9947L 20.3884 23.9866C 21.3168 24.0703 22.2378 23.7596 22.9253 23.1302L 21.5747 21.6551ZM 20.5861 21.9965C 17.1424 21.6298 13.9435 20.4941 11.0416 18.6079L 9.9549 20.2869C 13.0595 22.2882 16.697 23.5796 20.3704 23.9848L 20.5861 21.9965ZM 11.0338 18.6029C 8.32883 16.8946 6.11481 14.685 4.40317 11.9855L 2.71611 13.0596C 4.5555 15.9374 7.07936 18.4562 9.96268 20.2919L 11.0338 18.6029ZM 4.39843 11.9781C 2.50203 9.06917 1.36412 5.86197 1.00378 2.41034L -0.984992 2.62195C -0.586148 6.30521 0.70846 9.9541 2.72086 13.067L 4.39843 11.9781ZM 1.00532 2.42597C 0.972265 2.0609 1.09441 1.69842 1.34258 1.42709L -0.133206 0.0772587C -0.760442 0.76302 -1.07034 1.68076 -0.986531 2.60632L 1.00532 2.42597ZM 1.34258 1.42709C 1.59083 1.15568 1.94242 1.00046 2.31164 1.00011L 2.30976 -0.999886C 1.38051 -0.999013 0.49395 -0.608416 -0.133206 0.0772587L 1.34258 1.42709ZM 2.3107 1.00011L 5.77999 1.00011L 5.77999 -0.999887L 2.3107 -0.999887L 2.3107 1.00011ZM 5.78982 1.00007C 6.45041 0.993576 7.01084 1.47659 7.10274 2.12546L 9.08298 1.84501C 8.84992 0.199377 7.43138 -1.01616 5.77017 -0.999838L 5.78982 1.00007ZM 7.10148 2.11625C 7.25691 3.28018 7.55587 4.47792 7.96569 5.57859L 9.83903 4.87816C 9.46583 3.88459 9.22167 2.9064 9.08424 1.85423L 7.10148 2.11625ZM 7.96654 5.58085C 8.14631 6.05813 8.03157 6.59648 7.67161 6.95977L 9.09232 8.36746C 10.0022 7.4492 10.2938 6.08569 9.83819 4.8759L 7.96654 5.58085ZM 7.67556 6.95581L 6.20689 8.42157L 7.6197 9.83718L 9.08837 8.37142L 7.67556 6.95581ZM 6.04443 9.62441C 7.76475 12.6257 10.3513 15.2072 13.3583 16.9239L 14.3454 15.1845C 11.5621 13.6153 9.35434 11.4119 7.78217 8.63434L 6.04443 9.62441ZM 14.5583 16.762L 16.027 15.2963L 14.6142 13.8807L 13.1455 15.3464L 14.5583 16.762ZM 16.023 15.3002C 16.3873 14.9407 16.9288 14.8251 17.4094 15.0054L 18.1119 13.1328C 16.9021 12.6789 15.5379 12.969 14.6181 13.8767L 16.023 15.3002ZM 17.4116 15.0062C 18.5142 15.4151 19.7138 15.7134 20.8797 15.8685L 21.1407 13.8856C 20.0861 13.7483 19.1054 13.5045 18.1096 13.132L 17.4116 15.0062ZM 20.8708 15.8672C 21.5323 15.9604 22.0161 16.5326 21.9996 17.1951L 23.999 17.2448C 24.0408 15.5638 22.8139 14.1211 21.1496 13.8868L 20.8708 15.8672Z"/>
</defs>
</svg>
