<svg width="14" height="15" viewBox="0 0 14 15" version="1.1" xmlns="http://www.w3.org/2000/svg" xmlns:xlink="http://www.w3.org/1999/xlink">
<title>feather icon</title>
<desc>Created using Figma</desc>
<g id="Canvas" transform="translate(-639 497)">
<g id="feather icon">
<g id="user">
<g id="Shape">
<use xlink:href="#path0_stroke" transform="translate(640 -487.333)" fill="#1AB0CE"/>
</g>
<g id="Oval">
<use xlink:href="#path1_stroke" transform="translate(642.889 -496)" fill="#1AB0CE"/>
</g>
</g>
</g>
</g>
<defs>
<path id="path0_stroke" d="M 11.0556 4.33333C 11.0556 4.60948 11.2794 4.83333 11.5556 4.83333C 11.8317 4.83333 12.0556 4.60948 12.0556 4.33333L 11.0556 4.33333ZM -0.5 4.33333C -0.5 4.60948 -0.276142 4.83333 0 4.83333C 0.276142 4.83333 0.5 4.60948 0.5 4.33333L -0.5 4.33333ZM 12.0556 4.33333L 12.0556 2.88889L 11.0556 2.88889L 11.0556 4.33333L 12.0556 4.33333ZM 12.0556 2.88889C 12.0556 1.01726 10.5383 -0.5 8.66667 -0.5L 8.66667 0.5C 9.98601 0.5 11.0556 1.56954 11.0556 2.88889L 12.0556 2.88889ZM 8.66667 -0.5L 2.88889 -0.5L 2.88889 0.5L 8.66667 0.5L 8.66667 -0.5ZM 2.88889 -0.5C 1.01726 -0.5 -0.5 1.01726 -0.5 2.88889L 0.5 2.88889C 0.5 1.56954 1.56954 0.5 2.88889 0.5L 2.88889 -0.5ZM -0.5 2.88889L -0.5 4.33333L 0.5 4.33333L 0.5 2.88889L -0.5 2.88889Z"/>
<path id="path1_stroke" d="M 5.27778 2.88889C 5.27778 4.20824 4.20824 5.27778 2.88889 5.27778L 2.88889 6.27778C 4.76052 6.27778 6.27778 4.76052 6.27778 2.88889L 5.27778 2.88889ZM 2.88889 5.27778C 1.56954 5.27778 0.5 4.20824 0.5 2.88889L -0.5 2.88889C -0.5 4.76052 1.01726 6.27778 2.88889 6.27778L 2.88889 5.27778ZM 0.5 2.88889C 0.5 1.56954 1.56954 0.5 2.88889 0.5L 2.88889 -0.5C 1.01726 -0.5 -0.5 1.01726 -0.5 2.88889L 0.5 2.88889ZM 2.88889 0.5C 4.20824 0.5 5.27778 1.56954 5.27778 2.88889L 6.27778 2.88889C 6.27778 1.01726 4.76052 -0.5 2.88889 -0.5L 2.88889 0.5Z"/>
</defs>
</svg>
